<?xml version="1.0" encoding="utf-8"?>
<!-- Generator: Adobe Illustrator 21.1.0, SVG Export Plug-In . SVG Version: 6.00 Build 0)  -->
<svg version="1.1" id="Layer_1" xmlns="http://www.w3.org/2000/svg" xmlns:xlink="http://www.w3.org/1999/xlink" x="0px" y="0px"
	 viewBox="0 0 380.1 391.9" style="enable-background:new 0 0 380.1 391.9;" xml:space="preserve">
<style type="text/css">
	.st0{fill:#161616;}
	.st1{fill:#F4F4F4;}
</style>
<title>logolrcv</title>
<path class="st0" d="M372.8,0H7.4C3.3,0,0,3.3,0,7.3l0,0v377.2c0,4.1,3.3,7.4,7.3,7.4c0,0,0,0,0,0h365.4c4.1,0,7.4-3.3,7.4-7.4l0,0
	V7.3C380.1,3.3,376.8,0,372.8,0L372.8,0z M357.5,369H20.9V22.9h336.6L357.5,369z"/>
<rect x="20.9" y="22.9" class="st1" width="336.5" height="346.1"/>
<path class="st0" d="M306.9,301.1c16.3-7.1,22.7-20,22.7-39c0-28.4-17.9-46-51.4-46h-54.3v98.7h-54.8v-98.7H138v126.8h117v-35.3
	h24.6l17,35.3H334L306.9,301.1z M276.6,281.1H255v-39h21.6c17.8,0,22.7,8.3,22.6,20C299.1,272.6,294.3,281.1,276.6,281.1
	L276.6,281.1z"/>
</svg>
